<svg xmlns="http://www.w3.org/2000/svg" viewBox="0 0 960 540" role="img" aria-label="Pixel-art embedded engineering workstation">
  <rect width="960" height="540" fill="#10151c"/>
  <path d="M0 0h960v540H0z" fill="#10151c"/>
  <g opacity=".55">
    <path d="M0 72h960M0 144h960M0 216h960M0 288h960M0 360h960M0 432h960" stroke="#263241" stroke-width="4"/>
    <path d="M96 0v540M192 0v540M288 0v540M384 0v540M480 0v540M576 0v540M672 0v540M768 0v540M864 0v540" stroke="#263241" stroke-width="4"/>
  </g>
  <rect x="88" y="352" width="784" height="48" fill="#2c3542"/>
  <rect x="120" y="184" width="272" height="144" fill="#0e1116"/>
  <rect x="136" y="200" width="240" height="96" fill="#182838"/>
  <rect x="152" y="216" width="64" height="12" fill="#7bdff2"/>
  <rect x="152" y="244" width="128" height="12" fill="#d9f99d"/>
  <rect x="152" y="272" width="176" height="12" fill="#f59e0b"/>
  <rect x="224" y="328" width="64" height="24" fill="#0e1116"/>
  <rect x="176" y="352" width="160" height="16" fill="#111827"/>
  <rect x="464" y="232" width="216" height="120" fill="#164e63"/>
  <rect x="488" y="256" width="48" height="48" fill="#d9f99d"/>
  <rect x="560" y="256" width="88" height="16" fill="#7bdff2"/>
  <rect x="560" y="288" width="64" height="16" fill="#f59e0b"/>
  <path d="M512 304h112v24H512z" fill="#0e1116"/>
  <rect x="704" y="200" width="88" height="152" fill="#2b3441"/>
  <rect x="720" y="224" width="24" height="24" fill="#7bdff2"/>
  <rect x="752" y="224" width="24" height="24" fill="#d9f99d"/>
  <rect x="720" y="272" width="56" height="16" fill="#f59e0b"/>
  <rect x="720" y="304" width="40" height="16" fill="#7bdff2"/>
  <rect x="128" y="400" width="128" height="24" fill="#111827"/>
  <rect x="304" y="400" width="216" height="24" fill="#111827"/>
  <rect x="584" y="400" width="176" height="24" fill="#111827"/>
  <rect x="768" y="384" width="48" height="40" fill="#d9f99d"/>
</svg>
